<?xml version="1.0" encoding="UTF-8"?>
<svg id="Layer_1" xmlns="http://www.w3.org/2000/svg" version="1.1" viewBox="0 0 804 804">
  <!-- Generator: Adobe Illustrator 29.8.2, SVG Export Plug-In . SVG Version: 2.1.1 Build 3)  -->
  <defs>
    <style>
      .st0 {
        fill: #fff;
      }
    </style>
  </defs>
  <path class="st0" d="M289.8,633.4h0s0,0,0,0h0,0Z"/>
  <path class="st0" d="M402,11.6C186.4,11.6,11.7,186.4,11.7,402s174.8,390.4,390.4,390.4,390.4-174.8,390.4-390.4S617.6,11.6,402,11.6ZM538.9,344.8c36.8-5.2,65.7,14.6,74.8,50.5.9,1.9,3.9,16.7,2.9,17.7-.5.5-20.3-8.5-22.1-9.6-12.7-6.5-20.1-12.3-30.3-22.1h0c-2.8-3-31.9-35.7-25.2-36.5ZM424,54.4c36.9-3,65,18,72,54.4,1.4,6.6-38.9-10.4-42.6-12.1h0c-12.5-6.6-20.5-11.6-30.8-21.5-1.5-1.4-16.5-17.2-16.3-17.8.6-1.1,15.6-3.2,17.6-3ZM374.7,70.2c4.7-2.3,18.9-9.1,23.1-10.1,0,0,20.5,19.7,22.7,21.5h0s.2,0,.2,0c7.1,6.9,13.6,12.1,21.3,17.9,19,11.7,32.5,17.9,53.2,24.3,1.8.9,2.9.6,2.9,3.6.6,8.4-.3,17-1.3,25.4-24.2-2.2-45.3-12.6-65.9-24.2-17.2-9.3-46.2-39.7-57.1-56.4-1.3-.6.6-1.3.8-1.8ZM514.9,396.8l4.2,4.4c6.9,8.2,3.2,21-1.7,29.4-3.9,6.5-9.9,13.9-17.1,16.1-11.1,3.1-20.1,1.4-30.9-1.3-10-1.6-33.4-13.7-41.9-19.6-5.2-3.4-6.6-4-2.6-8.6,15.8-18.6,36.2-36.1,56.5-48.9.9-.9,5.3-4.1,5.8-3.7,4.6,6.8,9.2,12.6,14.8,18.5l12.9,13.6h0s.1.1.1.1ZM463.1,493.8c-6.8,6.5-10.7,10.1-15.7,18.6-14.9,23.4-29.9,50.6-62.5,42.7-13.3-4.2-22.1-9.6-33.3-17.5-2.8-2-4.2-1.6-1.7-4.8,6.3-7,11.3-12.6,16.3-20.1,1-.9,2.5-3.2,3.9-2.8,2.4-.3,20.7,11.1,31.1,11.3,4.3-.3,4.8-3.7,3-6.6-1.3-3.3-7.9-5.4-11.2-6.9-1.9-.9-15.5-7.5-15.5-7.5-1.5-.6-1-2,0-2.9,2.5-5.2,6.5-10.7,9.5-16.4.5-1.4,3.5-7,4.5-8,1,0,13.7,5.7,14.7,5.7,4.3,1.5,11.8,5.5,16,6.1,7,1.6,14.2,2.3,13-7.7-1.3-5.3-2.6-6.8-7.4-7.8-9-1.7-16.9-4.3-25.9-6.9-.5-.5-3.3-.6-3.3-1.5-.5-.6,4.5-9,4.5-9.9,1.5-2.3,9.1-16.8,11-16.8,1.4-.5,41.9,14.9,46.1,16.4,6.1,2.5,8,2.7,11.6,8.4,9.7,12.1.2,25.7-8.5,34.9h0s0,0,0,0h-.1ZM303.5,503.5c-7.2,2.6-16.4,5.1-24.2,4.5-3.6-.1-13.1-24.5-10.6-28.5,2.5-4,20.8-16.4,25.8-19.3,5.5-4.2,15.2,5.4,18.9,8.6,4,4.2,8.1,8.2,12.5,11.7,1.6,1.4,2.5,2.7,2.3,4.7h0c-3.7,6.3-18.2,15.3-24.7,18.2ZM289.9,633.4c-8.6,6.3-32.5-10.8-41.9-16.8-2.3-1.5-4.3-1.6-3.2-3.5,9.3-12.6,23-25.6,36.6-34.7,2.3-1.4,2-1.8,4.7-.8,9.9,4.6,23.9,14.4,31.8,21.8,2.3,2.4,6,6.3,5.4,9.7-.7,4.3-16,12.3-20.4,14.7-4.4,2.3-8.7,6.4-13.1,9.7h0ZM248,411.7c2.5-4,33.5-16.5,42.3-19.8,4.5-1.6,12.2-4,13,3.8.5,5.4-4.7,21.6-6.6,27.3-1.8,8.8-6.6,17.6-10.8,25.4h0c0-.1,0-.1,0-.1-2.2,4.9-11,12.7-16.4,14.8-6,1.7-17-3.3-21.8-5.5-6.1-2.8-6.7-11.2-6.3-17-.2-6,3.1-24.5,6.6-28.8ZM304,438h0c1.6-5.3,4.2-10.8,4.8-15.7.7-4.8,3.5-22,7.3-24,3-1.5,8,.7,11,2.1,9.6,5.2,23.4,15.2,30.9,23.1,2,2.3,1.3,2,.8,4.7-4.3,15.8-12.1,33-21,45.9-1.5,1.5-2.1-.2-4.3-2-8.8-6.9-32.7-23.8-29.5-34.1ZM379.8,228.6h-.1c6-11.3,15.7-24.6,30.3-19.4,6.7,1.5,7.4,3.3,11.8,8.3,2.9,3.6,30.6,36.9,30.6,38.4.6,1.8-10.7,13.6-12.5,15.8-.9.3-7.3,7.7-7.9,7.5-.9.3-2-2.4-2.5-2.7-5.3-7.6-10.4-14.4-14.9-22.4-2.5-4.2-4.4-5-9.8-4.5-9.9,2.2-6.9,8.6-3.1,14.9,1.8,3.8,8.1,9.6,11,13.1.3.9,9.7,11.1,10,12-.6,1.1-5,5.9-6.1,6.8-4.4,4.7-8.4,10.3-12.5,14.3-.6,1.3-1.7,2.2-2.7,1,0,0-10.5-10.7-12.1-12.2-2.5-2.7-6.7-8.3-10.3-8.4-3.3-.8-6.2.8-5.2,5,3.7,9.8,20.4,23.3,20.8,25.7.9,1.3-.8,3.3-1.4,4.6-5.5,7-9.2,13.5-13.7,21.8-2.2,3.4-2.3,1.9-5.1-.1-11.1-8.1-19.1-14.6-27.3-25.8-18.1-28.3,2.8-51.2,20.1-72.9,6.5-7.4,8.6-12.3,12.6-20.9h0ZM374.2,169.9h-.3c6.1,1.3,9.7,1.4,16,.6,3.9-.3,16.8-9.3,17.5-7.5,1.4,3.6-6.9,16.7,1.7,31.8.9,1.1,6,9.5,5.8,10-.2.6-6.3-2.2-7.6-2.8-7.8-2.1-11.4.7-15.3-.3-2.1-.2-1.2-8.7-4-12.2-3.5-5.3-15.8-13.8-16.3-19.3-.3-.8,2.4-.3,2.4-.3h0ZM472,156.2c7.4,3.3,14.3,5.9,22.2,8,.6.2-1,5.4-1.6,6.7-5.5,23.4-15.5,48.4-28,69.3-3.1,5.3-4,4-9,.3-8.4-6-27.3-24.3-32.2-33.2-6-9.5-10.5-17.4-11.2-28.8-.2-7.6,4.8-15.6,9.8-21.5,6.5-7.5,17.3-15,27.3-11.2l5.5,2.5h0s-.1,0-.1,0l17.2,7.9ZM474.3,452.5c.6-.5,10,1.7,11.4,2.2,17.1,3.3,26.9-8.7,30.7-8.7,1.9.1-2.3,15.2-1.5,19,1.3,6.2,2.5,9.6,5.8,14.9h0s-.1,0-.1,0c0,0,1.4,2.4.5,2.4-5.2,1.3-17.4-7.6-23.5-9.2-4.1-1.6-11.9,2.1-12.8.1-2.3-3.3-.7-7.6-5.3-14.4-.9-1-5.7-5.9-5.1-6.3ZM337.1,99c4.4-4.6,26.5-24.1,30-20.3,9.3,10.1,16.7,20.2,27.2,29.4,2.5,2.5,26.1,23.8,25.8,24.3,1,4.2-12,18.1-15.8,21.6-3.5,2.9-10.2,7.9-15,8.7-10.8,1-20.9-4.4-28.4-10.7-8.4-7.6-19.5-15.7-26.8-24.1-1.9-2.3-4.4-5-6.2-7.3v.2c.2-.7-5.1-6.8-5.1-6.8,5.2-5.1,8.9-10,14.2-15ZM277.1,257c.6-2.8,1.7-21.5,2-22,.9-1.8,5,2.3,5.5,2.5,4.4,3.5,10.3,8.4,14.9,11.2,4.6,2.8,10.4,6.2,15.7,2.8,3.5-2.8-2.8-8.7-4.6-11-7.5-7.8-16.2-13.2-24.8-20.2-.3-.8-3.7-3.1-4-4-.7-1.7-.8-6.2-.2-7.5,0-1.5,1.3-9,1.8-8.8,3.3-.8,30.5,17.5,33.8,19.8,1.8.8,7.7,2.7,7.8-.9.9-6.9-6.8-15.7-11.5-20.1-6.1-5.8-11.8-11.3-18-17.1-1.2-.6-4.6-4.4-5-5.3-1-2.7,3.1-11.9,4.3-14.3,12.2,4.2,22.1,13.2,32.6,20.9,2.2,1.7,10.2,6.8,12.5,2,2-4.3-24.3-24.5-29.3-28.1-2.4-1-8.5-5.3-9.2-7.2-.7-1.8,6.1-12,7.9-15.7h0s0,0,0,0h-.3c2.5-4.2,1.6-3.8,6.3.6,19.2,16.1,39.4,32.1,57.4,49.1,16.7,15.1,7.6,19-5.5,31.5-11.1,11.2-10.2,10.9-17.2,24.7-6.2,10.5-13.6,21.9-20.5,32-5.1,8-9.7,14.8-21.1,15.5-11.4.7-22.3-8-30.9-14.9-1.2-.5-1.5-1.4-1.8-2.3-.5-2.4,1.6-10.3,1.6-13.3ZM260.7,317.6h0s0,0,0,0v-.2c4.3-7.6,6.5-14.1,11.3-29.5.8-1.9,1.7-.7,3.3.8,14.2,9.5,21.2,10.4,37.2,14.1,7.3,1.9,11,3.6,14.2,11,5,11.9,6.3,18.5,15.5,29.3,7.1,8.4,19.3,17.7,27.9,24.6,1.6,1.5-.3,7.3-1.1,9.1-3,11.2-4.4,22.4-6.7,33.9-.8,3.3-.8,1.8-3.9-1-12.5-11.6-22.8-16.4-36.7-24.9-11.1-6.6-11.5-10.5-18.8-20.4-5.1-6.8-15.6-16-24.1-18.5-2.4-1-28-9.8-28-9.8-.9-1.1,8.8-15.9,9.9-18.3ZM232.9,358.9h0c1.5-1.7,11.2-16.5,12.1-16.8.6.3,15,7.6,17.4,8.8,10.4,4.8,27.2,10.3,24.7,25.4-1,4-3.1,5.3-6.3,7.5-1.7,2.2-7.4,6.3-9.8,5.2-5.4-1-18.9-15.3-24.5-19.4-3.1-2.9-9.9-7.5-13.8-8.5-.6-.2,0-1.5.2-2.1h0ZM219.6,380.1c2.2-5,4.8-8.9,7.4-12.9h0s0,0,0,0h.1c1.2-.8.8-.2,2.1.3,10.1,5.4,21.2,12,27.6,22.2,3.8,6.1-.3,7.2-5.1,11-3.2,2.2-9.7,8.1-13.3,8-4.3-.5-13.5-4.7-17.4-5.8-1.1-.6-9.7-3-10-3.9-.1-1.5,7.5-16.5,8.6-18.9ZM208.9,459.5c-1.8-.8-3.8-14.3-3.6-16.4-1.1-8.6-.7-21,1.7-29.5.3-1.9,1.4-2.5,3.2-2.2,3.7.2,16.9,3.3,19.1,5.1,4,2.5,2.6,8.7,2.5,12.2.2,6-.7,13-1.7,18.5h0s-.1-.1-.1-.1c-.9,6.9-6.9,8.6-13.1,11-.6-.2-6.8,2.1-8.1,1.5ZM216.1,473.2c-1.3-2.1,0-1.5,1.1-2.4,5.1-2.9,13.3-8,18.5-6.3,3.9,1,23.8,9.5,24.6,14.2.3,2.3.6,24.6,0,25.8-1.5.1-2.7-.5-3.9-1h-.1c-15.2-5.5-31.6-16.6-40.1-30.2ZM231.5,679.4c-3.2-7.2-3.9-16.7-3.7-24.3.7-7.1,4.5-23.8,9.3-29.3h0s0,.1,0,.1c1.9-.9,3.3-.5,5.2.6,4.6,2.9,9.8,5.4,15,8,4.2,2.4,16.4,8.5,14.3,15.1-1,5.7-6.8,27-9.8,30.7s-29.1,2.5-30.5-.8ZM286.9,726.1c-.6,1.4.5,2.4-2,1.8-15.6-3.8-31.5-15.6-41.6-28.2h0c-.9-.9-1.8-2-2.3-3.3.9-.9,22-8,24.5-8.4,4.8-.8,19.1,15.3,21.5,18.7,3.2,4.4,1,13.8,0,19.5ZM289.6,692.9c-3.7-3.9-12-12.7-12.3-18.9.1-5.8,4.7-16.5,8.6-20.2h0c0-.1,0-.1,0-.1h0c5.9-6.5,12.7-14,20.4-18.5,4.8-3.7,18.5-13.8,23.8-15.1,7.6-1.7,8,6.3,7.8,11.2-.2,9.6-2.1,42.8-5.1,46.5-3,4.7-19.4,13.7-25.1,15.6-5.3,2.2-13.4,4.4-18.1-.5ZM344.3,717c-7.3,5.1-18.8,9.5-27.5,11.2-2,.9-15.3,3.5-16.7,2-1-.9-.8-7.6-1.3-8.1.1-6.7-.1-12.8,6.1-16h0s0,0,0,0h.1c4.8-2.7,11.1-6,16.8-7.7,3.5-1.4,8.8-4.6,12.5-1.6,2.3,1.5,9.6,13.1,11,16.5.9,1.6.6,2.9-1,3.8ZM381.7,683.3c-3,3.8-5.9,7.5-9.8,11.2-2,1.9-13.7,13.8-15.1,14.3-.9,0-6-7.4-6.9-8.3-2.3-3.3-9.2-10.7-11.1-14.5-1.4-3.3,2.2-11.3,3.2-15.1,2.1-5.7,1.7-9.9,8.8-8.3,11.9,2.7,21.7,11,30,18.8.9,1,1.4.6.9,2ZM387.6,674.9h0s0,0,0,0c-.6.5-1.5,1.4-2,.9-2.3-3.5-8.9-8.4-12.6-10.4-5.5-3.9-23.4-12-26.2-16.8-1.8-2,.2-8.7,1.7-11,1-3.8,1.6-6.1,5-8.4,13.5-7.3,24.1,6.8,31.9,15.1,1.8,1.9,13.5,13.3,14,13.7,0,.9-10.8,15-11.9,16.8ZM442,615c-13.1,9.7-18.5,13.8-24.3,20.3h0s0,0,0,0v-.2c-2,1.9-12.8,15.8-14.2,15.3,0,0-16.6-21.3-18.5-23.3-5.1-7.3-17.2-14.3-25.2-16.8-11.8-3.6-15.6-2.8-25.4-11.1-12.7-10.4-20.5-18.7-35.5-26.7-3.8-2-5.2-1.5-2.3-3.3,10.2-5.9,20.3-11,30-17.3,1.5-1.4,6.3-5.1,8.2-4,9.3,6,21.9,14.4,32.3,18.5,13.3,5.2,20,4.4,32.8,5.2,8.1.7,10.8,3.6,15,9.9,8.6,14.1,11.9,20.3,25.4,30.7,1.8,1,3.3,1.5,1.8,2.9ZM575.6,530.1h0s-.2.1-.2.1c-2.9,2.8-10.4,12.6-12.2,12.6-1.8-.1-8-4.5-9.8-6.5-5.1-3.5-32.6-21.8-36.1-18.6-3.9,3.7,3.6,9.6,5.9,11.1,10.7,7.4,22.5,14,30.3,24.1-2,1.9-9.2,8.8-12.1,8.8s-5.7-2-6.6-3c-7.5-4-14.5-7.5-22-11.5-5.7-3-16.5-7.6-22.7-4.4-3.3,1.3.4,6.1,1.7,7.6,3.2,2.4,29.4,22.1,29.8,25.5.5.6-6.3,4.1-7.7,4.6-.9.9-5.3,2.2-7.2,2.2s-4.3-2.5-5.2-2.5c-9.3-5.9-17.2-12.3-27.1-16.8-2.9-1-10.4-5.1-11.9-.8-1.6,6.1,3.6,10.5,7.7,14,4.3,3.5,10.7,7.4,15.5,10.4.5.5,5.6,3,4.2,4.4-.5.5-17.7,7.6-20.2,9-2.9.9-9.7,5.4-12.1,5.9-1,0-2,0-2.9-1-9.3-6-21.1-13.4-24.1-24.5s2-17.5,7.9-25c7.4-9.8,15.8-20.5,23.6-29.9,10.7-11.1,10.7-10.1,17.8-24.2,7.6-16.5,8.3-26.4,28-15.5,22.1,11.5,43.6,25.4,65.2,38.3,5.5,3,5.7,2.1,2.7,5.8h0ZM599.8,492c-3,6.6-6.5,11.8-9.5,18.3,0,0-7.6-3-8.1-2.5h0s-.1-.1-.1-.1c-2.9-1-6.1-2.5-9-3.6-10.3-4-21.6-11.9-31.4-17.4-8.4-5-16.8-12.8-19.4-23.3-.8-4.8,1.9-12.8,3.3-17.1,2.1-4.6,11.1-21.6,15.3-21.9.6-.5,28.1,15,31.5,16.5,12.2,6.9,24,10.6,36.7,16.1,4.7,2.1-6.5,29.3-9.5,34.9ZM614.8,447.2c-.5.5-.6,2.4-1.5,1.4-19.4-4.7-57.4-22.4-71.8-35.6-17.8-15.7-34.4-32.3-44.3-54.4,7.7-3.6,15.3-7.1,23.5-9.3,2.9-.9,2.9,0,4.3,1.5,12.8,17.4,23.1,28.1,40.2,42.4,8,5.4,15,9.9,23.9,14.4h0s.1,0,.1,0c2.3,1.5,27.7,14.5,27.7,14.5.3,4.3-1.5,19.9-2.1,25.1Z"/>
</svg>